<?xml version="1.0" encoding="UTF-8" standalone="no"?>
<svg
   sodipodi:docname="Phönix Gaming Studio Logo.svg"
   width="4096"
   height="4096"
   viewBox="0 0 4096 4096"
   version="1.1"
   id="svg8"
   inkscape:version="1.2.1 (9c6d41e410, 2022-07-14)"
   xmlns:inkscape="http://www.inkscape.org/namespaces/inkscape"
   xmlns:sodipodi="http://sodipodi.sourceforge.net/DTD/sodipodi-0.dtd"
   xmlns:xlink="http://www.w3.org/1999/xlink"
   xmlns="http://www.w3.org/2000/svg"
   xmlns:svg="http://www.w3.org/2000/svg"
   xmlns:rdf="http://www.w3.org/1999/02/22-rdf-syntax-ns#"
   xmlns:cc="http://creativecommons.org/ns#"
   xmlns:dc="http://purl.org/dc/elements/1.1/">
  <defs
     id="defs2">
    <linearGradient
       id="linear-gradient-48"
       x1="468"
       y1="60.029999"
       x2="535.37"
       y2="60.029999"
       xlink:href="#linear-gradient"
       gradientTransform="matrix(24.80319,0,0,24.80319,-9182.8256,0.4899)" />
    <linearGradient
       id="linear-gradient"
       x1="145.59"
       y1="176.62"
       x2="151.34"
       y2="176.62"
       gradientUnits="userSpaceOnUse">
      <stop
         offset="0"
         stop-color="#ed1c24"
         id="stop4" />
      <stop
         offset=".45"
         stop-color="#e82c1c"
         id="stop6" />
      <stop
         offset=".78"
         stop-color="#f26b10"
         id="stop8" />
      <stop
         offset="1"
         stop-color="#ffbf00"
         id="stop10" />
    </linearGradient>
    <linearGradient
       id="linear-gradient-49"
       x1="402.60001"
       y1="82.580002"
       x2="500.04999"
       y2="82.580002"
       xlink:href="#linear-gradient"
       gradientTransform="matrix(24.80319,0,0,24.80319,-9182.8256,0.4899)" />
    <linearGradient
       id="linear-gradient-50"
       x1="450.67999"
       y1="62.16"
       x2="488.95001"
       y2="62.16"
       xlink:href="#linear-gradient"
       gradientTransform="matrix(24.80319,0,0,24.80319,-9182.8256,0.4899)" />
    <linearGradient
       id="ax"
       x1="402.60001"
       y1="82.580002"
       x2="500.04999"
       y2="82.580002"
       xlink:href="#linear-gradient"
       gradientTransform="matrix(24.803197,0,0,24.803197,-9182.8165,-0.0014)" />
    <linearGradient
       id="aw"
       x1="479"
       y1="57.57"
       x2="535.38"
       y2="57.57"
       xlink:href="#linear-gradient"
       gradientTransform="matrix(24.803197,0,0,24.803197,-9182.8165,-0.0014)" />
    <linearGradient
       id="ay"
       x1="450.67999"
       y1="62.16"
       x2="488.95001"
       y2="62.16"
       xlink:href="#linear-gradient"
       gradientTransform="matrix(24.803197,0,0,24.803197,-9182.8165,-0.0014)" />
  </defs>
  <sodipodi:namedview
     id="base"
     pagecolor="#000000"
     bordercolor="#666666"
     borderopacity="1.0"
     inkscape:pageopacity="0"
     inkscape:pageshadow="2"
     inkscape:zoom="0.077829298"
     inkscape:cx="-353.33738"
     inkscape:cy="2042.9325"
     inkscape:document-units="px"
     inkscape:current-layer="layer1"
     inkscape:document-rotation="0"
     showgrid="false"
     units="px"
     inkscape:showpageshadow="0"
     inkscape:pagecheckerboard="0"
     inkscape:deskcolor="#000000"
     inkscape:window-width="1920"
     inkscape:window-height="1017"
     inkscape:window-x="-8"
     inkscape:window-y="-8"
     inkscape:window-maximized="1" />
  <metadata
     id="metadata5">
    <rdf:RDF>
      <cc:Work
         rdf:about="">
        <dc:format>image/svg+xml</dc:format>
        <dc:type
           rdf:resource="http://purl.org/dc/dcmitype/StillImage" />
      </cc:Work>
    </rdf:RDF>
  </metadata>
  <g
     inkscape:label="Layer 1"
     inkscape:groupmode="layer"
     id="layer1"
     transform="translate(-401.63831)">
    <path
       class="em"
       d="m 3487.9001,1551.192 c 0,0 317.481,-80.6104 580.3949,-234.3903 -0.2481,0.9922 -0.2481,1.7363 -0.4961,2.4804 -28.7717,158.2444 -138.6499,290.4454 -288.4612,348.4849 -120.2955,46.878 -261.1777,87.8033 -423.6386,114.8388 0,0 303.8392,-1.4882 587.0917,-77.8821 -0.4961,0.9922 -0.9922,1.7363 -1.4882,2.7284 -82.5947,163.7011 -252.0005,265.6422 -435.2961,265.3942 -108.638,0 -228.1894,-9.1772 -357.6621,-31.004 14.8819,4.9607 259.1934,86.0671 522.6033,112.8546 l -1.4882,1.2401 c -102.1891,87.3073 -235.1343,129.2247 -369.0715,117.0711 -126.9924,-11.4095 -269.3628,-36.7087 -424.3827,-83.3387 11.9055,6.9449 205.6185,116.327 445.2174,177.5909 -77.6341,31.5 -167.9177,104.6695 -461.8356,43.9016 0,0 150.3074,234.6383 190.9846,265.1462 l -302.3509,-96.2364 122.7758,323.9298 -169.9019,-262.9139 -2.9764,-10.6654 c 178.8311,-416.6937 88.7954,-842.5646 83.8348,-864.3914 0,0 1023.3799,-290.4455 1171.9511,-1614.4401 0,0 24.8032,71.6812 53.8229,189.4964 59.2797,239.8469 17.8583,493.8316 -116.0789,701.1864 -70.9372,109.8781 -162.213,226.9492 -280.0281,345.5085 17.6102,-12.8977 302.3509,-223.2288 483.6623,-474.2371 0,0.9921 0,2.2323 0.248,3.2244 12.1536,226.7012 -99.4608,441.993 -290.1974,565.2649 -91.2757,59.0316 -196.4413,116.823 -317.2329,169.1578 z"
       id="path241"
       style="fill:url(#aw);stroke-width:0px" />
    <path
       class="ex"
       d="m 2117.2755,1614.4401 c 0,0 -1023.38,-290.4454 -1171.95106,-1614.4401 0,0 -24.8032,71.4332 -53.823,189.2484 -59.2796,239.8469 -17.8583,493.8317 116.07896,701.1864 70.9372,109.8781 162.709,227.1973 280.7722,346.0046 0,0 -297.14226,-215.5398 -484.40636,-474.9812 0,0.9921 0,2.2322 0,3.2244 -12.1536,226.7012 99.4608,441.9929 289.94926,565.2648 91.2758,59.0316 196.6894,116.5751 317.481,169.1578 0,0 -317.729,-80.6103 -580.64286,-234.3902 0,0.7441 0.248,1.7363 0.4961,2.4803 28.7717,158.2444 138.6498,290.1975 288.46116,348.485 120.2955,46.878 261.1776,87.8033 423.6386,114.8388 0,0 -303.5912,-1.4882 -586.84366,-77.8821 0.4961,0.9922 0.9921,1.7363 1.2402,2.7284 82.59456,163.7011 252.00046,265.6422 435.29606,265.3942 108.886,0 228.4374,-9.1772 358.4062,-31.004 0,0 -251.5044,85.323 -523.5955,112.8545 l 1.7362,1.2402 c 102.1892,87.3073 235.1343,129.2247 368.8236,117.0711 127.2404,-11.4095 269.6107,-36.9568 425.1268,-83.5868 0,0 -198.4256,114.5908 -445.9615,177.8389 77.634,31.5001 168.1657,104.6695 461.8355,43.9017 0,0 -150.3074,234.6383 -190.7366,265.1462 l 302.351,-96.2364 -168.9098,445.7134 215.5398,-194.9531 -481.9261,665.4698 152.5397,174.3665 271.843,-520.6191 -173.6224,596.7649 218.0201,218.0201 152.5397,-850.2536 -26.2914,449.682 -39.1891,487.6308 196.1933,196.1933 196.1933,-196.1933 -39.189,-487.6308 -26.2914,-449.682 152.5396,850.2536 218.0201,-218.0201 -190.7365,-657.2847 288.9572,581.1389 152.5397,-174.3665 -519.1309,-803.6236 -2.9764,-10.4173 c 183.5436,-427.6072 83.8348,-865.3836 83.8348,-865.3836 -147.579,72.1773 -252.9926,365.5991 -266.8824,406.0283 -34.9725,-60.7678 -212.3154,-352.9495 -397.3472,-457.1229 v 0 z"
       id="path243"
       style="fill:url(#ax);stroke-width:0px" />
    <path
       class="dp"
       d="m 2944.7101,1227.0142 c -97.7246,-97.7246 -250.5123,-8.4331 -250.5123,-8.4331 -7.4409,-7.1929 -14.8819,-13.6418 -22.3229,-19.5945 -3.2244,-2.4804 -6.4488,-4.2166 -9.6732,-6.4489 -4.4646,-2.9764 -8.6811,-6.2008 -13.1457,-8.6811 -3.9685,-2.2323 -7.689,-3.9685 -11.6575,-5.7047 -3.7205,-1.9843 -7.441,-3.9685 -11.4095,-5.4567 -4.2165,-1.7363 -8.6811,-2.7284 -12.8976,-4.2166 -3.4725,-0.9921 -6.6969,-2.2323 -10.1693,-2.9764 -4.7126,-0.9921 -9.1772,-1.4882 -13.8898,-2.2322 -3.2244,-0.4961 -6.4489,-0.9922 -9.6733,-1.2402 -4.7126,-0.4961 -9.4252,-0.248 -14.3858,-0.248 -2.9764,0 -5.9528,0 -9.1772,0 -4.9607,0.248 -9.6733,0.9921 -14.6339,1.7362 -2.9764,0.496 -5.7047,0.7441 -8.6811,1.2401 -4.9607,0.9922 -9.9213,2.2323 -14.6339,3.4725 -1.9843,0.4961 -4.2166,0.7441 -6.2008,1.4882 v 0 c -14.6339,4.4646 -29.0197,10.6654 -43.4056,17.8583 l -0.4961,-0.9921 c 0,0 -355.9258,174.6145 -472.2528,-51.8387 0,0 48.6142,211.3232 287.469,212.5634 -87.3072,104.1734 -147.0829,213.3075 -147.0829,213.3075 208.0988,67.9607 367.3353,388.418 367.3353,388.418 0,0 2.9764,-7.1929 8.6811,-19.5945 1.7362,-3.9685 3.7205,-8.4331 5.9528,-13.1457 0,-0.496 0.248,-0.7441 0.4961,-1.2401 2.2322,-4.7126 4.7126,-9.9213 7.1929,-15.378 0.496,-0.7441 0.7441,-1.4882 0.9921,-2.2323 2.7284,-5.7047 5.7047,-11.6575 8.9292,-17.8583 0,-0.248 0.248,-0.4961 0.496,-0.9921 2.9764,-5.9528 6.4489,-12.4016 9.9213,-19.0985 0.4961,-0.7441 0.7441,-1.4882 1.2402,-2.4803 3.4724,-6.4489 7.1929,-13.3937 10.9134,-20.0906 0.7441,-1.2402 1.4882,-2.4803 2.2323,-3.7205 3.9685,-6.9449 7.937,-14.1378 12.1535,-21.3307 0.4961,-0.7441 0.9922,-1.7363 1.4882,-2.4804 3.9685,-6.6968 8.1851,-13.6417 12.6496,-20.5866 0.4961,-0.9921 1.2402,-1.9843 1.9843,-2.9764 4.4646,-7.1929 9.1772,-14.1378 13.8898,-21.3307 0.9921,-1.4882 1.9842,-2.9764 2.9764,-4.4646 4.9606,-6.9449 9.6732,-14.1378 14.8819,-20.8347 0.9921,-1.2402 1.7362,-2.2323 2.7283,-3.4725 4.7127,-6.4488 9.9213,-12.8976 14.882,-19.0984 0.7441,-0.7441 1.2401,-1.7362 1.9842,-2.7284 5.4567,-6.6968 10.9134,-12.8976 16.3701,-19.0984 1.2402,-1.2402 2.4804,-2.7284 3.7205,-3.9685 5.4567,-5.9528 11.1615,-11.9056 17.1142,-17.3623 0.9921,-0.9921 2.2323,-1.9842 3.2244,-2.9764 5.7048,-5.4567 11.6575,-10.4173 17.3623,-15.1299 0.496,-0.4961 0.9921,-0.7441 1.4882,-1.2402 6.2008,-4.9606 12.4016,-9.4252 18.6024,-13.3937 1.2401,-0.7441 2.4803,-1.7362 3.7204,-2.4803 6.2008,-3.9685 12.4016,-7.441 18.8505,-10.4174 1.2401,-0.496 2.2323,-0.9921 3.4724,-1.7362 6.6969,-2.9764 13.3937,-5.7047 20.0906,-7.4409 0,0 -23.315,-214.2997 -23.315,-229.1816 0,-85.075 203.8823,-161.4688 203.8823,-161.4688 z"
       id="path245"
       style="fill:url(#ay);stroke-width:0px" />
  </g>
</svg>
